<svg width="371" height="114" viewBox="0 0 371 114" fill="none" xmlns="http://www.w3.org/2000/svg">
<path d="M86 80.0859C86 84.4896 85.1589 88.6211 83.4766 92.4805C81.7943 96.3398 79.4935 99.7292 76.5742 102.648C73.7044 105.518 70.3398 107.794 66.4805 109.477C62.6211 111.159 58.4896 112 54.0859 112H0.871094V5.57031H54.0859C58.4896 5.57031 62.6211 6.41146 66.4805 8.09375C70.3398 9.77604 73.7044 12.0768 76.5742 14.9961C79.4935 17.8659 81.7943 21.2305 83.4766 25.0898C85.1589 28.9492 86 33.0807 86 37.4844C86 39.4635 85.7279 41.4922 85.1836 43.5703C84.6393 45.6484 83.8724 47.6523 82.8828 49.582C81.8932 51.5117 80.7057 53.2682 79.3203 54.8516C77.9349 56.4349 76.401 57.7461 74.7188 58.7852C76.4505 59.7253 78.0091 61.0117 79.3945 62.6445C80.7799 64.2279 81.9674 65.9844 82.957 67.9141C83.9466 69.8438 84.6888 71.8724 85.1836 74C85.7279 76.0781 86 78.1068 86 80.0859ZM22.1719 90.6992H54.0859C55.5703 90.6992 56.9557 90.4271 58.2422 89.8828C59.5286 89.3385 60.6419 88.5964 61.582 87.6562C62.5716 86.6667 63.3385 85.5286 63.8828 84.2422C64.4271 82.9557 64.6992 81.5703 64.6992 80.0859C64.6992 78.6016 64.4271 77.2161 63.8828 75.9297C63.3385 74.6432 62.5716 73.5299 61.582 72.5898C60.6419 71.6003 59.5286 70.8333 58.2422 70.2891C56.9557 69.7448 55.5703 69.4727 54.0859 69.4727H22.1719V90.6992ZM22.1719 48.1719H54.0859C55.5703 48.1719 56.9557 47.8997 58.2422 47.3555C59.5286 46.8112 60.6419 46.069 61.582 45.1289C62.5716 44.1393 63.3385 43.0013 63.8828 41.7148C64.4271 40.3789 64.6992 38.9688 64.6992 37.4844C64.6992 36 64.4271 34.6146 63.8828 33.3281C63.3385 32.0417 62.5716 30.9284 61.582 29.9883C60.6419 28.9987 59.5286 28.2318 58.2422 27.6875C56.9557 27.1432 55.5703 26.8711 54.0859 26.8711H22.1719V48.1719ZM120.363 112H99.9531V0.894531H120.363V112ZM212.84 112H207.941L200.074 101.09C198.145 102.822 196.091 104.454 193.914 105.988C191.786 107.473 189.535 108.784 187.16 109.922C184.785 111.01 182.336 111.876 179.812 112.52C177.339 113.163 174.815 113.484 172.242 113.484C166.651 113.484 161.382 112.544 156.434 110.664C151.535 108.784 147.23 106.062 143.52 102.5C139.858 98.888 136.964 94.4844 134.836 89.2891C132.708 84.0938 131.645 78.181 131.645 71.5508C131.645 65.3659 132.708 59.7005 134.836 54.5547C136.964 49.3594 139.858 44.9062 143.52 41.1953C147.23 37.4844 151.535 34.6146 156.434 32.5859C161.382 30.5078 166.651 29.4688 172.242 29.4688C174.815 29.4688 177.363 29.7904 179.887 30.4336C182.41 31.0768 184.859 31.9674 187.234 33.1055C189.609 34.2435 191.861 35.5794 193.988 37.1133C196.165 38.6471 198.194 40.3047 200.074 42.0859L207.941 32.6602H212.84V112ZM192.43 71.5508C192.43 68.7799 191.885 66.1081 190.797 63.5352C189.758 60.9128 188.323 58.612 186.492 56.6328C184.661 54.6042 182.509 52.9961 180.035 51.8086C177.611 50.5716 175.013 49.9531 172.242 49.9531C169.471 49.9531 166.849 50.4232 164.375 51.3633C161.951 52.3034 159.823 53.6888 157.992 55.5195C156.211 57.3503 154.801 59.6263 153.762 62.3477C152.723 65.0195 152.203 68.0872 152.203 71.5508C152.203 75.0143 152.723 78.1068 153.762 80.8281C154.801 83.5 156.211 85.7513 157.992 87.582C159.823 89.4128 161.951 90.7982 164.375 91.7383C166.849 92.6784 169.471 93.1484 172.242 93.1484C175.013 93.1484 177.611 92.5547 180.035 91.3672C182.509 90.1302 184.661 88.5221 186.492 86.543C188.323 84.5143 189.758 82.2135 190.797 79.6406C191.885 77.0182 192.43 74.3216 192.43 71.5508ZM290.398 112H224.121L257.594 52.8477H224.121V32.6602H290.398L256.926 91.8125H290.398V112ZM332.109 92.5547C332.901 92.8021 333.693 92.9753 334.484 93.0742C335.276 93.1237 336.068 93.1484 336.859 93.1484C338.839 93.1484 340.743 92.8763 342.574 92.332C344.405 91.7878 346.112 91.0208 347.695 90.0312C349.328 88.9922 350.763 87.7552 352 86.3203C353.286 84.8359 354.326 83.2031 355.117 81.4219L369.961 96.3398C368.081 99.0117 365.904 101.411 363.43 103.539C361.005 105.667 358.358 107.473 355.488 108.957C352.668 110.441 349.674 111.555 346.508 112.297C343.391 113.089 340.174 113.484 336.859 113.484C331.268 113.484 325.999 112.445 321.051 110.367C316.152 108.289 311.848 105.395 308.137 101.684C304.475 97.9727 301.581 93.569 299.453 88.4727C297.326 83.3268 296.262 77.6862 296.262 71.5508C296.262 65.2669 297.326 59.5273 299.453 54.332C301.581 49.1367 304.475 44.7083 308.137 41.0469C311.848 37.3854 316.152 34.5404 321.051 32.5117C325.999 30.4831 331.268 29.4688 336.859 29.4688C340.174 29.4688 343.415 29.8646 346.582 30.6562C349.749 31.4479 352.742 32.5859 355.562 34.0703C358.432 35.5547 361.104 37.3854 363.578 39.5625C366.052 41.6901 368.229 44.0898 370.109 46.7617L332.109 92.5547ZM342.5 50.7695C341.56 50.4232 340.62 50.2005 339.68 50.1016C338.789 50.0026 337.849 49.9531 336.859 49.9531C334.089 49.9531 331.466 50.4727 328.992 51.5117C326.568 52.5013 324.44 53.9362 322.609 55.8164C320.828 57.6966 319.418 59.9727 318.379 62.6445C317.34 65.2669 316.82 68.2357 316.82 71.5508C316.82 72.293 316.845 73.1341 316.895 74.0742C316.993 75.0143 317.117 75.9792 317.266 76.9688C317.464 77.9089 317.686 78.8242 317.934 79.7148C318.181 80.6055 318.503 81.3971 318.898 82.0898L342.5 50.7695Z" fill="#34C4EB"/>
</svg>
